<svg xmlns="http://www.w3.org/2000/svg" xmlns:xlink="http://www.w3.org/1999/xlink" width="22" height="22" viewBox="0 0 22 22">
  <defs>
    <clipPath id="clip-account-tiers">
      <rect width="22" height="22"/>
    </clipPath>
  </defs>
  <g id="account-tiers" clip-path="url(#clip-account-tiers)">
    <g id="user" transform="translate(0.3)">
      <g id="Group_3316" data-name="Group 3316">
        <g id="Group_3315" data-name="Group 3315">
          <path id="Path_7170" data-name="Path 7170" d="M21.583,10.792a10.792,10.792,0,1,0-16.04,9.426.36.36,0,0,0,.077.043,10.775,10.775,0,0,0,10.342,0,.358.358,0,0,0,.077-.043A10.8,10.8,0,0,0,21.583,10.792Zm-20.864,0a10.072,10.072,0,1,1,15.468,8.5V17.267a5.416,5.416,0,0,0-2.68-4.658.362.362,0,0,0-.377.008,4.366,4.366,0,0,1-4.678,0,.362.362,0,0,0-.377-.008A5.416,5.416,0,0,0,5.4,17.267v2.026A10.073,10.073,0,0,1,.719,10.792Zm5.4,8.918V17.267a4.7,4.7,0,0,1,2.142-3.925,5.091,5.091,0,0,0,5.068,0,4.7,4.7,0,0,1,2.142,3.925V19.71a10.054,10.054,0,0,1-9.353,0Z" fill="#269c2f"/>
          <path id="Path_7171" data-name="Path 7171" d="M174.264,118.127a3.6,3.6,0,1,0-3.6-3.6A3.6,3.6,0,0,0,174.264,118.127Zm0-6.475a2.878,2.878,0,1,1-2.878,2.878A2.881,2.881,0,0,1,174.264,111.652Z" transform="translate(-163.473 -106.257)" fill="#269c2f"/>
        </g>
      </g>
    </g>
  </g>
</svg>
