<svg xmlns="http://www.w3.org/2000/svg" width="30.75" height="20.51" viewBox="0 0 30.75 20.51">
  <path id="Icon_ionic-ios-arrow-round-back" data-name="Icon ionic-ios-arrow-round-back" d="M19.023,11.644a1.4,1.4,0,0,1,.011,1.965l-6.483,6.5H37.255a1.389,1.389,0,0,1,0,2.777H12.55l6.494,6.5a1.406,1.406,0,0,1-.011,1.965,1.383,1.383,0,0,1-1.955-.011l-8.8-8.865h0a1.559,1.559,0,0,1-.288-.438,1.325,1.325,0,0,1-.107-.534,1.392,1.392,0,0,1,.4-.972l8.8-8.865A1.361,1.361,0,0,1,19.023,11.644Z" transform="translate(-7.883 -11.252)" fill="#279c30"/>
</svg>
