<svg xmlns="http://www.w3.org/2000/svg" width="782.366" height="382.677" viewBox="0 0 782.366 382.677">
  <g id="Group_11312" data-name="Group 11312" transform="translate(-464.665 -59.934)">
    <g id="Group_11313" data-name="Group 11313">
      <path id="Path_29213" data-name="Path 29213" d="M612.424,310.459c3.139-1.784,2.009-5.425,2.32-7.9,2.516-19.986,6.2-39.8,8.539-59.816,1.678-14.335,4.916-28.508,6.325-42.9,2.35-24.013,8.267-47.467,10.633-71.5,1.066-10.82,1.879-21.84,4.238-32.4s2.75-21.39,5.331-31.883c.687-2.794,1.642-3.948,4.545-3.943q48.24.093,96.48-.023c3.4-.011,4.279,1.278,4.208,4.41-.16,6.994-.049,13.993-.049,20.991q0,173.179-.014,346.359c0,7.849.85,6.777-7.019,6.8-18.163.048-36.329-.161-54.487.135-4.728.077-5.735-1.389-5.729-5.858q.186-132.7.061-265.393c0-1.9.608-3.938-.992-6.358-2.372,5.363-2.577,10.81-3.639,15.886-2.052,9.8-2.4,20.035-4.585,29.739-3.141,13.983-4.193,28.251-7.316,42.219-2.545,11.385-3.1,23.2-5.376,34.664-2.991,15.043-4.352,30.329-7.235,45.35-4.173,21.739-7.647,43.571-10.862,65.461-1.5,10.231-3.445,20.4-5.443,30.551-.607,3.083-.624,6.216-1.072,9.3-.548,3.767-1.873,4.43-5.306,4.4-18.328-.164-36.658-.127-54.987-.028-3.023.017-4.448-.231-4.988-4.031-2.687-18.888-6.255-37.641-9.5-56.442-1.428-8.274-1.843-16.853-3.7-25.031-2.432-10.739-3.657-21.628-5.176-32.452-1.963-13.991-4.9-27.8-6.768-41.82-1.771-13.289-4.526-26.476-6.255-39.8-1.815-13.988-5.08-27.727-6.629-41.774a188.049,188.049,0,0,0-6.034-29.291v5.477q0,129.694.09,259.39c.007,4.409-.9,5.922-5.658,5.845-18.658-.3-37.325-.244-55.985-.032-4.189.048-5.735-.762-5.73-5.4q.2-183.926.033-367.851c0-4.026.983-5.467,5.276-5.447q52.238.246,104.477,0c3.918-.018,5.136,1.362,5.554,4.979,1.313,11.336,2.977,22.63,4.365,33.958,1.324,10.8,2,21.7,3.827,32.406,1.861,10.9,3.872,21.822,4.712,32.8,1.4,18.293,4.922,36.295,6.387,54.588,1.259,15.726,4.812,31.256,6.584,46.959,1.584,14.033,3.557,28.008,5.284,42.018.125,1.015.151,2,1.26,2.687" fill="#686769"/>
      <path id="Path_29214" data-name="Path 29214" d="M777.3,249.775q0-91.689-.1-183.378c-.013-4.929,1.054-6.519,6.3-6.462,26.817.293,53.64.024,80.46.179,16.338.094,32.505,2.119,47.7,8.341,14.412,5.9,26.048,15.4,33.283,29.638,5.513,10.847,6.948,22.545,8.18,34.459a193.515,193.515,0,0,1,.727,27.8c-.53,13.073-1.441,26.223-5.157,38.852-2.794,9.5-8.868,16.882-16.712,23-9.1,7.1-19.64,10.549-30.57,13.328-1.078.274-3.685-.418-3.132,2.013.374,1.642,2.361,1.421,3.864,1.508,10.2.592,19.435,4.172,27.879,9.653,10.655,6.915,15.745,17.8,18.7,29.482a150.493,150.493,0,0,1,4.279,33.1c.254,9.93,1.374,19.829.985,29.788-.712,18.217-1.018,36.5-6.975,54.014-5.472,16.085-15.859,28.154-31.522,34.792a95.825,95.825,0,0,1-30.727,7.683c-34.746,2.478-69.516.486-104.263,1.224-2.384.05-3.38-.77-3.207-3.143.1-1.325.011-2.664.011-4V249.775m74.845,74V372.2c0,12.327,0,12.327,12.406,11.933a3.944,3.944,0,0,0,.5-.01c7.506-1.177,13.057-4.438,13.116-13.184.212-31.281.151-62.564.035-93.846-.029-7.665-5.118-12.457-12.759-12.671-2.993-.084-6.012.208-8.981-.075-3.609-.344-4.417,1.124-4.389,4.522.154,18.3.073,36.607.073,54.91m0-157.976c0,15.8-.023,31.605.039,47.407.006,1.438-.859,3.285,1.731,3.952,12.517,3.226,24.092-4.659,24.223-17.142.239-22.786.186-45.577.02-68.364-.068-9.338-4.142-14.452-12.532-16.934-3.093-.915-6.291-.2-9.409-.577-3.4-.407-4.165,1.079-4.137,4.252.141,15.8.064,31.6.065,47.406" fill="#686769"/>
      <path id="Path_29216" data-name="Path 29216" d="M973,286.3c0-31.482-.289-62.968.125-94.444.2-15.275,6.394-28.308,17.406-39.2,6.06-5.992,12.831-11.078,20.525-13.986,16.169-6.11,32.771-9.592,50.513-7.094,10.489,1.477,20.711,3.257,30.328,7.486,13.2,5.806,23.892,14.437,31.225,27.373,6.5,11.464,8.062,23.956,8.363,36.38.719,29.633.144,59.3.332,88.945.027,4.228-1.206,5.243-5.3,5.216-26.989-.177-53.981-.023-80.97-.17-3.792-.021-5.144.789-5.112,4.9.2,25.651.1,51.3.1,76.957,0,3.737.612,7.257,3.463,10.024,5.714,5.543,13.832,4.271,17.484-2.878a24.635,24.635,0,0,0,2.58-11.436c-.038-17.157.072-34.315-.084-51.471-.032-3.659.557-5.276,4.832-5.222,19.49.244,38.985.183,58.476.035,3.409-.026,4.552.813,4.512,4.395-.19,16.323.4,32.667-.228,48.967-.564,14.65-3.292,29.037-12.113,41.343-8.375,11.683-20.1,19.39-33.287,24.16a101.99,101.99,0,0,1-47.627,5.2,98.066,98.066,0,0,1-28.165-8c-11.994-5.4-21.091-13.767-28.266-24.316a48.921,48.921,0,0,1-8.936-27.228c-.225-31.979-.084-63.961-.084-95.941H973m67.535-66.78c0,9.309.1,18.62-.06,27.926-.053,3.035.86,4.114,3.959,3.97a141.6,141.6,0,0,1,14.957.012c3.838.23,4.769-1.251,4.733-4.877-.169-16.455-.033-32.913-.127-49.37a26.441,26.441,0,0,0-1.084-7.337c-1.922-6.427-7.161-9.745-13.532-8.708-4.666.758-8.968,4.056-8.864,11.455.125,8.975.03,17.952.018,26.929" fill="#686769"/>
      <path id="Path_29217" data-name="Path 29217" d="M1160.109,297.43c0-40.794-.071-74.111.087-107.426.02-4.357-.787-6.111-5.682-5.971-12.413.352-12.42.091-12.42-12.4,0-11.161.086-22.323-.053-33.482-.038-2.987.8-4.441,3.932-3.956a2.083,2.083,0,0,0,.5,0c4.419-.386,10.455,2,12.835-1.044,2.213-2.836.768-8.593.786-13.065.048-11.993.133-23.989-.055-35.98-.056-3.592.826-4.979,4.7-4.944q29.24.262,58.48-.021c4.005-.043,4.6,1.439,4.557,4.942-.172,15.324.009,30.651-.142,45.975-.032,3.186.755,4.715,4.108,4.141a1.984,1.984,0,0,1,.5,0c4.42.4,10.116-1.949,12.934,1.043,2.554,2.711.705,8.274.742,12.575.091,10.494-.1,20.991.1,31.482.068,3.57-.764,5.064-4.678,4.976-4.412-.1-10.469-2.1-12.84.921-2.219,2.832-.781,8.6-.782,13.084q-.034,85.206-.007,170.413a38.436,38.436,0,0,0,1.02,10.369c1.809,6.586,4.547,8.979,11.3,8.983,6.94.005,6.941.005,6.942,6.773,0,13.326-.072,26.654.055,39.979.028,2.95-.716,4.08-3.887,4.033-11.158-.165-22.382.687-33.463-.247-9.657-.815-19.616-.689-28.728-5.52-10.991-5.828-17.69-14.674-18.98-26.789-4.123-38.7-.628-77.553-1.864-108.843" fill="#686769"/>
    </g>
  </g>
</svg>
