<svg xmlns="http://www.w3.org/2000/svg" width="45.534" height="36.307" viewBox="0 0 45.534 36.307">
  <g id="Untitled-1" transform="translate(0 0.001)">
    <path id="Path_4561" data-name="Path 4561" d="M0,761.91a1.34,1.34,0,0,1,1.3-.636c1.13.046,2.264.016,3.4.011.155,0,.326.059.462-.075l1.162.095a1.254,1.254,0,0,0-.631,1.222c.024.471-.021.945.011,1.415a3.318,3.318,0,0,0,1.289,2.546,5.77,5.77,0,0,0,1.37.667c-1.714,0-3.428.005-5.142,0A3.2,3.2,0,0,1,.08,764.551.6.6,0,0,0,0,764.4v-2.49Z" transform="translate(0 -730.852)" fill="#b4dbfe"/>
    <path id="Path_4562" data-name="Path 4562" d="M184.672.028c.34,0,.68-.01,1.02-.01,9.731,0,19.461.019,29.192-.019a2.767,2.767,0,0,1,2.883,2.875c-.034,8.25-.015,16.5-.016,24.749a2.6,2.6,0,0,1-1.945,2.738,4.343,4.343,0,0,1-1.011.075q-4.921,0-9.841.012l-7.113,0h-6.412l-6.758-.02a.7.7,0,0,0-.14-.1,2.656,2.656,0,0,1-1.809-2.83l3.106-.021c.074.007.147.019.221.019q14.026,0,28.051,0c.556,0,.642-.092.642-.648q0-11.581,0-23.161c0-.688-.032-.719-.737-.719H186.4c-.163,0-.325.009-.488.013l-3.189-.02a2.736,2.736,0,0,1,.932-2.335c.312-.278.713-.345,1.022-.6Z" transform="translate(-175.426 0)" fill="#6b7ed8"/>
    <path id="Path_4563" data-name="Path 4563" d="M146.077,761.355l6.758.02c0,.636,0,1.271.011,1.907a.943.943,0,0,0,1.024,1.017q2.994,0,5.988,0,2.708,0,5.417,0a.963.963,0,0,0,1.079-1.056c.008-.621,0-1.243.006-1.865l9.841-.012a4.324,4.324,0,0,0,1.011-.075c.139.129.311.071.467.072,1.215.005,2.429,0,3.644,0a.938.938,0,0,1,1.034,1.049,13.77,13.77,0,0,1-.077,2.256,3.254,3.254,0,0,1-3.007,2.561q-17.043,0-34.085,0a5.771,5.771,0,0,1-1.37-.667,3.321,3.321,0,0,1-1.289-2.546c-.032-.47.013-.944-.011-1.415a1.253,1.253,0,0,1,.631-1.222l2.925-.028Z" transform="translate(-136.834 -730.929)" fill="#daecfe"/>
    <path id="Path_4564" data-name="Path 4564" d="M86.372,30.875l-2.925.028-1.162-.095a2.588,2.588,0,0,1-1.951-2.683q0-12.458,0-24.915A2.573,2.573,0,0,1,83.09.467c1.1,0,2.191.006,3.286.01-.309.25-.71.317-1.022.6a2.736,2.736,0,0,0-.932,2.335c-.059,0-.118.008-.177.008a.81.81,0,0,0-.9.918v22.73c0,.133.007.267,0,.4-.017.309.138.417.432.419a1.144,1.144,0,0,1,.65.061,2.657,2.657,0,0,0,1.809,2.83.705.705,0,0,1,.14.1Z" transform="translate(-77.13 -0.449)" fill="#4d67d0"/>
    <path id="Path_4565" data-name="Path 4565" d="M258.614,74.347c.163,0,.325-.013.489-.013h27.607c.706,0,.737.03.737.719V98.214c0,.556-.086.648-.642.648q-14.026,0-28.051,0c-.074,0-.147-.012-.221-.019a2.71,2.71,0,0,1-.083-.475q0-5.135.006-10.27a1.2,1.2,0,0,1,.075.2,8.468,8.468,0,0,0,1.093,2.932,8.6,8.6,0,0,0,3.418,3.4,8.211,8.211,0,0,0,4.121,1.23.988.988,0,0,0,.523.012,9.715,9.715,0,0,0,3.3-.558,6.337,6.337,0,0,0,2.586.532l.557.01a7.721,7.721,0,0,0,1.584-.1,7.809,7.809,0,0,0,3.029-1.141,7.889,7.889,0,0,0,3.41-3.392,8.641,8.641,0,0,0,1.274-4.632,8.243,8.243,0,0,0-.413-2.735,5.232,5.232,0,0,0-.885-1.9,4.649,4.649,0,0,0-1.033-1.524,6.86,6.86,0,0,0-2.333-1.849,8.412,8.412,0,0,0-4.634-1.292c-.189-.011-.384-.079-.559.052a6.316,6.316,0,0,0-2.585.534c-.155-.047-.311-.092-.465-.14a8.978,8.978,0,0,0-2.836-.432.856.856,0,0,0-.446.01,8.564,8.564,0,0,0-4.222,1.252,8.44,8.44,0,0,0-3.372,3.386c-.094.15-.2.294-.28.45a11.65,11.65,0,0,0-.895,2.629.277.277,0,0,1-.007-.044q-.007-5.1-.017-10.2a.738.738,0,0,1,.173-.441Z" transform="translate(-248.133 -71.369)" fill="#58be93"/>
    <path id="Path_4566" data-name="Path 4566" d="M159.82,87.95q0,5.135-.006,10.27a2.705,2.705,0,0,0,.083.475l-3.106.021a1.141,1.141,0,0,0-.65-.061c-.294,0-.448-.11-.432-.419.007-.133,0-.266,0-.4V75.106a.81.81,0,0,1,.9-.918c.059,0,.118-.006.177-.008l3.189.02a.736.736,0,0,0-.173.441q.014,5.1.017,10.2a.269.269,0,0,0,.007.043,11.67,11.67,0,0,0-.087,1.565,11.8,11.8,0,0,0,.076,1.5Z" transform="translate(-149.499 -71.222)" fill="#20b480"/>
    <path id="Path_4567" data-name="Path 4567" d="M568.556,763.442c0,.622,0,1.243-.006,1.865a.963.963,0,0,1-1.079,1.056q-2.708,0-5.417,0a1.285,1.285,0,0,1-.626-1.295c.049-.537.013-1.082.014-1.624l7.113,0Z" transform="translate(-539.029 -732.993)" fill="#b4dbfe"/>
    <path id="Path_4568" data-name="Path 4568" d="M407.622,763.421c0,.542.035,1.087-.014,1.624a1.285,1.285,0,0,0,.626,1.3q-2.994,0-5.988,0a.942.942,0,0,1-1.024-1.017c-.013-.636-.008-1.271-.011-1.907Z" transform="translate(-385.209 -732.974)" fill="#8bc9fe"/>
    <path id="Path_4569" data-name="Path 4569" d="M731.781,459.052a7.894,7.894,0,0,1-3.411,3.392l-1.62-2.857a6.837,6.837,0,0,0,2.053-2.032c.032-.054.116-.077.176-.115l2.8,1.612Z" transform="translate(-697.765 -439.197)" fill="#d9ebfd"/>
    <path id="Path_4570" data-name="Path 4570" d="M785.351,265.46a5.239,5.239,0,0,1,.885,1.9,8.239,8.239,0,0,1,.413,2.735l-3.363,0a6.926,6.926,0,0,0-.22-1.609c-.1-.495-.424-.9-.5-1.405Z" transform="translate(-751.359 -254.873)" fill="#d9ebfd"/>
    <path id="Path_4571" data-name="Path 4571" d="M731.729,184.234l-2.781,1.626c-.051-.026-.126-.038-.15-.08a6.581,6.581,0,0,0-2.077-2.067l1.642-2.853a6.869,6.869,0,0,1,2.333,1.849,4.649,4.649,0,0,1,1.033,1.524Z" transform="translate(-697.737 -173.648)" fill="#6b7fd8"/>
    <path id="Path_4572" data-name="Path 4572" d="M783.235,381.724l3.363,0a8.644,8.644,0,0,1-1.274,4.632l-2.8-1.612a.7.7,0,0,1,.12-.417A5.889,5.889,0,0,0,783.235,381.724Z" transform="translate(-751.308 -366.497)" fill="#6b7ed8"/>
    <path id="Path_4573" data-name="Path 4573" d="M490.11,148.8a8.992,8.992,0,0,1,2.836.432c.155.048.31.093.465.14l.874.38.475.308-1.7,2.877a3.566,3.566,0,0,0-1.505-.535,3.752,3.752,0,0,0-1.449-.276q0-1.663,0-3.326Z" transform="translate(-470.563 -142.867)" fill="#f17182"/>
    <path id="Path_4574" data-name="Path 4574" d="M493.489,514.739a9.7,9.7,0,0,1-3.3.558q0-1.659,0-3.317a9.26,9.26,0,0,0,1.427-.2,7.608,7.608,0,0,0,1.522-.6l1.689,2.862-.479.315-.86.381Z" transform="translate(-470.64 -490.793)" fill="#fdde30"/>
    <path id="Path_4575" data-name="Path 4575" d="M655.826,149.772l-1.642,2.853a6.15,6.15,0,0,0-2.214-.713l-.8-.87q.011-1.281.022-2.561a8.411,8.411,0,0,1,4.634,1.292Z" transform="translate(-625.2 -142.559)" fill="#d9ebfd"/>
    <path id="Path_4576" data-name="Path 4576" d="M654.184,511.29l1.62,2.857a7.805,7.805,0,0,1-3.029,1.142,7.724,7.724,0,0,1-1.585.1q-.011-1.259-.021-2.519l.8-.88c.071,0,.137-.009.168-.086l-.025-.014a1.922,1.922,0,0,0,.648-.042,12.539,12.539,0,0,0,1.421-.555Z" transform="translate(-625.2 -490.899)" fill="#6b7fd8"/>
    <path id="Path_4577" data-name="Path 4577" d="M394.1,148.219q0,1.663,0,3.326a7,7,0,0,0-3,.8l-.984-1.762a8.352,8.352,0,0,1,1.667-1.372,17.987,17.987,0,0,1,1.875-.983.855.855,0,0,1,.446-.01Z" transform="translate(-374.551 -142.284)" fill="#fdde30"/>
    <path id="Path_4578" data-name="Path 4578" d="M393.477,511.96q0,1.659,0,3.317a.989.989,0,0,1-.523-.012,1.173,1.173,0,0,0-.5-.257,13.958,13.958,0,0,1-3-2l.018-.155,1-1.7a6.926,6.926,0,0,0,3,.8Z" transform="translate(-373.927 -490.774)" fill="#f17182"/>
    <path id="Path_4579" data-name="Path 4579" d="M256.517,269.994a7.992,7.992,0,0,1,.981-4.194c.081-.156.186-.3.28-.45.607.335,1.18.733,1.819,1.011l.019.077a9.378,9.378,0,0,0-.63,3.545l-2.47.012Z" transform="translate(-246.272 -254.768)" fill="#f9c601"/>
    <path id="Path_4580" data-name="Path 4580" d="M256.487,381.512l2.47-.012,0,.029a9.4,9.4,0,0,0,.626,3.529l-.035.072-1.814,1.019a8.468,8.468,0,0,1-1.093-2.932,1.228,1.228,0,0,0-.075-.2,11.872,11.872,0,0,1-.076-1.5Z" transform="translate(-246.241 -366.285)" fill="#ec5468"/>
    <path id="Path_4581" data-name="Path 4581" d="M288.08,473.548l1.815-1.018a1.225,1.225,0,0,1,.306.527,7.7,7.7,0,0,0,1.941,2.71c-.006.052-.012.1-.018.155a5.834,5.834,0,0,0-.625,1.024,8.6,8.6,0,0,1-3.418-3.4Z" transform="translate(-276.591 -453.685)" fill="#f9c601"/>
    <path id="Path_4582" data-name="Path 4582" d="M290.319,184.856c-.639-.278-1.212-.675-1.819-1.011a8.436,8.436,0,0,1,3.372-3.386,5.875,5.875,0,0,1,.6,1.084,17.2,17.2,0,0,0-1.408,1.919c-.247.465-.5.929-.747,1.393Z" transform="translate(-276.994 -173.263)" fill="#ec5468"/>
    <path id="Path_4583" data-name="Path 4583" d="M373.662,151.4a5.877,5.877,0,0,0-.6-1.084,8.57,8.57,0,0,1,4.223-1.252,18.033,18.033,0,0,0-1.875.983,8.34,8.34,0,0,0-1.667,1.372l-.078-.018Z" transform="translate(-358.181 -143.116)" fill="#f9c601"/>
    <path id="Path_4584" data-name="Path 4584" d="M373.78,558.6a5.817,5.817,0,0,1,.625-1.024,13.953,13.953,0,0,0,3,2,1.169,1.169,0,0,1,.5.257A8.211,8.211,0,0,1,373.78,558.6Z" transform="translate(-358.873 -535.343)" fill="#ec5468"/>
    <path id="Path_4585" data-name="Path 4585" d="M597.07,147.816q-.011,1.281-.021,2.561a9.839,9.839,0,0,0-1.774-1.286l-.475-.308,1.711-.915C596.687,147.737,596.881,147.8,597.07,147.816Z" transform="translate(-571.078 -141.895)" fill="#6b7fd8"/>
    <path id="Path_4586" data-name="Path 4586" d="M596.732,550.83q.01,1.259.021,2.519l-.557-.01-1.725-.913.479-.315a9.524,9.524,0,0,0,1.783-1.281Z" transform="translate(-570.761 -528.862)" fill="#d9ebfd"/>
    <path id="Path_4587" data-name="Path 4587" d="M573.77,590.85l1.725.913a6.338,6.338,0,0,1-2.585-.533Z" transform="translate(-550.061 -567.286)" fill="#b4dbfe"/>
    <path id="Path_4588" data-name="Path 4588" d="M575.475,149.79l-1.711.915-.874-.38a6.307,6.307,0,0,1,2.585-.534Z" transform="translate(-550.042 -143.817)" fill="#4d67d0"/>
    <path id="Path_4589" data-name="Path 4589" d="M673.425,245.558a12.589,12.589,0,0,1-1.421.555,1.931,1.931,0,0,1-.648.042c.129-.428.51-.709.654-1.129a9.286,9.286,0,0,0,0-9.262,8.872,8.872,0,0,0-.8-1.244,6.149,6.149,0,0,1,2.214.714A6.576,6.576,0,0,1,675.5,237.3c.025.042.1.054.15.08.072.5.395.911.5,1.405a6.923,6.923,0,0,1,.22,1.609,5.884,5.884,0,0,1-.593,2.6.706.706,0,0,0-.12.417c-.06.037-.144.061-.176.115a6.846,6.846,0,0,1-2.053,2.032Z" transform="translate(-644.441 -225.167)" fill="#8bc9fd"/>
    <path id="Path_4590" data-name="Path 4590" d="M429.432,250a7.617,7.617,0,0,1-1.522.6.366.366,0,0,0-.207-.152,5.58,5.58,0,0,1-2.758-1.956,4.619,4.619,0,0,1-1.1-2.589c.117.185.226.376.352.555a2.74,2.74,0,0,0,3.631.783,2.771,2.771,0,0,0-2.067-5.088,2.935,2.935,0,0,0-1.918,1.637,1.64,1.64,0,0,1,.016-.4,5.91,5.91,0,0,1,4.073-4.24,3.565,3.565,0,0,1,1.505.535c.262.186.524.373.787.558a8.5,8.5,0,0,1,1.43,1.6,6.393,6.393,0,0,1,.73,3.022,5.5,5.5,0,0,1-.374,2.105,3.167,3.167,0,0,0-.351.89A9.054,9.054,0,0,1,429.432,250Z" transform="translate(-406.932 -229.617)" fill="#ec5468"/>
    <path id="Path_4591" data-name="Path 4591" d="M344.086,239.254a4.618,4.618,0,0,0,1.1,2.589,5.575,5.575,0,0,0,2.758,1.956.364.364,0,0,1,.207.152,9.26,9.26,0,0,1-1.427.2,6.916,6.916,0,0,1-3-.8c-.189-.138-.377-.279-.569-.412a8.328,8.328,0,0,1-1.642-1.761,7.212,7.212,0,0,1-.743-2.994c.023-.278.042-.556.069-.834a8.079,8.079,0,0,1,.694-2.173,8.266,8.266,0,0,1,2.187-2.15,7,7,0,0,1,3-.8,3.746,3.746,0,0,1,1.449.276,5.91,5.91,0,0,0-4.072,4.239,1.646,1.646,0,0,0-.016.4l0-.008c-.122.066-.095.179-.089.285a4.015,4.015,0,0,0,0,1.556c-.006.107-.036.221.089.288Z" transform="translate(-327.176 -222.969)" fill="#e53950"/>
    <path id="Path_4592" data-name="Path 4592" d="M566.407,185.485a8.505,8.505,0,0,0-1.43-1.6c-.263-.184-.524-.372-.787-.558l1.7-2.877a9.84,9.84,0,0,1,1.774,1.286l.8.87a8.84,8.84,0,0,1,.8,1.244l-2.854,1.635Z" transform="translate(-541.689 -173.254)" fill="#fdde30"/>
    <path id="Path_4593" data-name="Path 4593" d="M564.14,459.727a9.045,9.045,0,0,0,2.223-2.137l2.848,1.61c-.143.42-.524.7-.654,1.129l.024.014c-.1-.055-.132.019-.168.086l-.8.88a9.543,9.543,0,0,1-1.783,1.281l-1.689-2.862Z" transform="translate(-541.641 -439.341)" fill="#f17182"/>
    <path id="Path_4594" data-name="Path 4594" d="M671.29,526.233c.036-.068.069-.141.168-.086C671.427,526.224,671.361,526.234,671.29,526.233Z" transform="translate(-644.517 -505.145)" fill="#8bc9fd"/>
    <path id="Path_4595" data-name="Path 4595" d="M337.347,209.43a8.267,8.267,0,0,0-2.188,2.15l-1.011-.542c-.006-.026-.012-.051-.019-.077.249-.464.5-.928.747-1.393a17.138,17.138,0,0,1,1.408-1.919l.078.018.984,1.762Z" transform="translate(-320.804 -199.369)" fill="#f17182"/>
    <path id="Path_4596" data-name="Path 4596" d="M334.6,456.66a8.32,8.32,0,0,0,1.642,1.762c.193.134.38.275.569.412l-1,1.7a7.7,7.7,0,0,1-1.941-2.71,1.225,1.225,0,0,0-.306-.527l.036-.072,1-.56Z" transform="translate(-320.266 -438.448)" fill="#fdde30"/>
    <path id="Path_4597" data-name="Path 4597" d="M319.284,292.62l1.011.542a8.089,8.089,0,0,0-.694,2.173c-.028.278-.046.556-.069.833l-.879.026,0-.03a9.379,9.379,0,0,1,.63-3.545Z" transform="translate(-305.939 -280.95)" fill="#fdde30"/>
    <path id="Path_4598" data-name="Path 4598" d="M318.616,381.606l.879-.026a7.212,7.212,0,0,0,.743,2.994l-1,.56A9.408,9.408,0,0,1,318.616,381.606Z" transform="translate(-305.903 -366.362)" fill="#f17182"/>
    <path id="Path_4599" data-name="Path 4599" d="M622.728,386.49l-2.848-1.61a3.176,3.176,0,0,1,.351-.89,5.5,5.5,0,0,0,.374-2.105l3.36-.025a8.486,8.486,0,0,1-1.238,4.63Z" transform="translate(-595.158 -366.631)" fill="#fdde30"/>
    <path id="Path_4600" data-name="Path 4600" d="M623.86,270.352l-3.36.025a6.393,6.393,0,0,0-.73-3.022l2.854-1.635a8.468,8.468,0,0,1,1.236,4.632Z" transform="translate(-595.052 -255.123)" fill="#f17182"/>
    <path id="Path_4601" data-name="Path 4601" d="M419.838,315.56a4.015,4.015,0,0,1,0-1.556.35.35,0,0,0,.089-.284l0,.008a2.933,2.933,0,0,1,1.918-1.637,2.579,2.579,0,0,1,2.08.286,2.822,2.822,0,0,0-.013,4.8,2.74,2.74,0,0,1-3.631-.783c-.125-.179-.235-.369-.352-.555l0,.008a.353.353,0,0,0-.089-.288Z" transform="translate(-403.02 -299.555)" fill="#f9c601"/>
    <path id="Path_4602" data-name="Path 4602" d="M491.786,326.3a2.822,2.822,0,0,1,.013-4.8,2.748,2.748,0,0,1-.013,4.8Z" transform="translate(-470.894 -308.678)" fill="#fdde30"/>
    <path id="Path_4603" data-name="Path 4603" d="M421.574,355.18a.35.35,0,0,1-.089.284C421.479,355.359,421.452,355.246,421.574,355.18Z" transform="translate(-404.668 -341.015)" fill="#ec5468"/>
    <path id="Path_4604" data-name="Path 4604" d="M421.506,401.33a.352.352,0,0,1,.089.288C421.471,401.551,421.5,401.437,421.506,401.33Z" transform="translate(-404.688 -385.325)" fill="#ec5468"/>
  </g>
</svg>
