<svg xmlns="http://www.w3.org/2000/svg" width="40" height="24.582" viewBox="0 0 40 24.582">
  <g id="Group_6234" data-name="Group 6234" transform="translate(-10.001 -29.301)">
    <path id="Path_18002" data-name="Path 18002" d="M49.6,45.373l-3.8-10.129A9.2,9.2,0,0,0,37.231,29.3H22.718a9.2,9.2,0,0,0-8.577,5.94l-3.72,9.941a6.629,6.629,0,0,0,.28,5.284,6.076,6.076,0,0,0,3.768,3.164,6.353,6.353,0,0,0,1.76.252,6.256,6.256,0,0,0,4.908-2.36L23.2,48.95H36.763l1.94,2.428a6.424,6.424,0,0,0,3.824,2.376,6.677,6.677,0,0,0,1.2.108A6.288,6.288,0,0,0,49.6,45.373Zm-6.637,5.964a4,4,0,0,1-2.344-1.492l-2-2.512a2.232,2.232,0,0,0-1.744-.84h-13.8a2.232,2.232,0,0,0-1.744.836l-2.108,2.652a3.836,3.836,0,0,1-4.072,1.284,3.96,3.96,0,0,1-2.432-5.224l3.72-9.921a6.7,6.7,0,0,1,6.276-4.364H37.231A6.7,6.7,0,0,1,43.507,36.1l1.6,4.237,2.212,5.9a3.836,3.836,0,0,1-4.352,5.1Z" fill="#686769"/>
    <path id="Path_18003" data-name="Path 18003" d="M38.162,41.58H35.706v2.456H33.25v2.456h2.456v2.456h2.456V46.492h2.456V44.036H38.162Z" transform="translate(-13.948 -7.368)" fill="#686769"/>
    <circle id="Ellipse_359" data-name="Ellipse 359" cx="1.228" cy="1.228" r="1.228" transform="translate(35.271 34.212)" fill="#686769"/>
    <circle id="Ellipse_360" data-name="Ellipse 360" cx="1.228" cy="1.228" r="1.228" transform="translate(35.271 39.125)" fill="#686769"/>
    <circle id="Ellipse_361" data-name="Ellipse 361" cx="1.228" cy="1.228" r="1.228" transform="translate(37.727 36.669)" fill="#686769"/>
    <circle id="Ellipse_362" data-name="Ellipse 362" cx="1.228" cy="1.228" r="1.228" transform="translate(32.811 36.669)" fill="#686769"/>
  </g>
</svg>
