<svg xmlns="http://www.w3.org/2000/svg" xmlns:xlink="http://www.w3.org/1999/xlink" width="26" height="22.5" viewBox="0 0 26 22.5">
  <defs>
    <clipPath id="clip-faqs-01">
      <rect width="26" height="22.5"/>
    </clipPath>
  </defs>
  <g id="faqs-01" clip-path="url(#clip-faqs-01)">
    <g id="chat" transform="translate(-8 -40)">
      <path id="Path_7164" data-name="Path 7164" d="M32.375,44.167H28.833V41.458A1.46,1.46,0,0,0,27.375,40H9.458A1.46,1.46,0,0,0,8,41.458V53.541A1.46,1.46,0,0,0,9.458,55h.208v2.917a.417.417,0,0,0,.711.295L13.589,55h1.078v2.708a1.46,1.46,0,0,0,1.458,1.458H28.244l3.211,3.211a.417.417,0,0,0,.711-.295V59.166h.208a1.46,1.46,0,0,0,1.458-1.458V45.625A1.46,1.46,0,0,0,32.375,44.167Zm-18.958,10a.417.417,0,0,0-.295.122L10.5,56.911V54.583a.417.417,0,0,0-.417-.417H9.458a.626.626,0,0,1-.625-.625V41.458a.626.626,0,0,1,.625-.625H27.375a.626.626,0,0,1,.625.625V53.541a.626.626,0,0,1-.625.625ZM33,57.708a.626.626,0,0,1-.625.625H31.75a.417.417,0,0,0-.417.417v2.328l-2.622-2.622a.417.417,0,0,0-.295-.122H16.125a.626.626,0,0,1-.625-.625V55H27.375a1.46,1.46,0,0,0,1.458-1.458V45h3.542a.626.626,0,0,1,.625.625Z" fill="#269c2f"/>
      <path id="Path_7165" data-name="Path 7165" d="M48.417,168.833H64.25a.417.417,0,1,0,0-.833H48.417a.417.417,0,1,0,0,.833Z" transform="translate(-37.917 -121.333)" fill="#269c2f"/>
      <path id="Path_7166" data-name="Path 7166" d="M48.417,136.833H64.25a.417.417,0,1,0,0-.833H48.417a.417.417,0,1,0,0,.833Z" transform="translate(-37.917 -91)" fill="#269c2f"/>
      <path id="Path_7167" data-name="Path 7167" d="M48.417,200.833H64.25a.417.417,0,1,0,0-.833H48.417a.417.417,0,1,0,0,.833Z" transform="translate(-37.917 -151.667)" fill="#269c2f"/>
      <path id="Path_7168" data-name="Path 7168" d="M48.417,104.833H64.25a.417.417,0,1,0,0-.833H48.417a.417.417,0,1,0,0,.833Z" transform="translate(-37.917 -60.667)" fill="#269c2f"/>
      <path id="Path_7169" data-name="Path 7169" d="M64.666,232.417A.417.417,0,0,0,64.25,232H48.417a.417.417,0,1,0,0,.833H64.25A.417.417,0,0,0,64.666,232.417Z" transform="translate(-37.917 -182)" fill="#269c2f"/>
    </g>
  </g>
</svg>
