<svg xmlns="http://www.w3.org/2000/svg" xmlns:xlink="http://www.w3.org/1999/xlink" width="28" height="22.5" viewBox="0 0 28 22.5">
  <defs>
    <clipPath id="clip-howtotopup">
      <rect width="28" height="22.5"/>
    </clipPath>
  </defs>
  <g id="howtotopup" clip-path="url(#clip-howtotopup)">
    <g id="study" transform="translate(0 -50.669)">
      <path id="Path_7147" data-name="Path 7147" d="M291.892,103.42a17.448,17.448,0,0,1-3.639-.731,6.59,6.59,0,0,0-4.62.221.407.407,0,1,0,.321.748,5.8,5.8,0,0,1,4.064-.19,18.25,18.25,0,0,0,3.812.763h.032a.407.407,0,0,0,.031-.813Z" transform="translate(-268.007 -48.9)" fill="#656565"/>
      <path id="Path_7148" data-name="Path 7148" d="M291.892,135.295a17.445,17.445,0,0,1-3.639-.731,6.59,6.59,0,0,0-4.62.221.407.407,0,1,0,.321.748,5.8,5.8,0,0,1,4.064-.19,18.247,18.247,0,0,0,3.812.763h.032a.407.407,0,0,0,.031-.813Z" transform="translate(-268.007 -79.046)" fill="#656565"/>
      <path id="Path_7149" data-name="Path 7149" d="M291.892,294.671a17.444,17.444,0,0,1-3.639-.731,6.59,6.59,0,0,0-4.62.221.407.407,0,1,0,.321.748,5.8,5.8,0,0,1,4.064-.19,18.249,18.249,0,0,0,3.812.763h.032a.407.407,0,0,0,.031-.813Z" transform="translate(-268.007 -229.773)" fill="#656565"/>
      <path id="Path_7150" data-name="Path 7150" d="M291.892,326.547a17.449,17.449,0,0,1-3.639-.731,6.591,6.591,0,0,0-4.62.221.407.407,0,1,0,.321.748,5.8,5.8,0,0,1,4.064-.19,18.251,18.251,0,0,0,3.812.763h.032a.407.407,0,0,0,.031-.813Z" transform="translate(-268.007 -259.919)" fill="#656565"/>
      <path id="Path_7151" data-name="Path 7151" d="M291.892,167.17a17.444,17.444,0,0,1-3.639-.731,6.59,6.59,0,0,0-4.62.221.407.407,0,0,0,.321.748,5.8,5.8,0,0,1,4.064-.19,18.249,18.249,0,0,0,3.812.763h.032a.407.407,0,0,0,.031-.813Z" transform="translate(-268.007 -109.191)" fill="#656565"/>
      <path id="Path_7152" data-name="Path 7152" d="M291.892,230.921a17.441,17.441,0,0,1-3.639-.73,6.59,6.59,0,0,0-4.62.221.407.407,0,1,0,.321.748,5.8,5.8,0,0,1,4.064-.19,18.252,18.252,0,0,0,3.812.763h.032a.407.407,0,0,0,.031-.813Z" transform="translate(-268.007 -169.482)" fill="#656565"/>
      <path id="Path_7153" data-name="Path 7153" d="M291.892,199.046a17.448,17.448,0,0,1-3.639-.731,6.59,6.59,0,0,0-4.62.221.407.407,0,1,0,.321.748,5.8,5.8,0,0,1,4.064-.19,18.249,18.249,0,0,0,3.812.763h.032a.407.407,0,0,0,.031-.813Z" transform="translate(-268.007 -139.337)" fill="#656565"/>
      <path id="Path_7154" data-name="Path 7154" d="M291.892,262.8a17.439,17.439,0,0,1-3.639-.731,6.59,6.59,0,0,0-4.62.221.407.407,0,1,0,.321.748,5.8,5.8,0,0,1,4.064-.19,18.248,18.248,0,0,0,3.812.763h.032a.407.407,0,0,0,.031-.813Z" transform="translate(-268.007 -199.628)" fill="#656565"/>
      <path id="Path_7155" data-name="Path 7155" d="M65.355,104.232h.032a18.246,18.246,0,0,0,3.812-.763,5.8,5.8,0,0,1,4.064.19.407.407,0,0,0,.321-.748,6.59,6.59,0,0,0-4.62-.221,17.449,17.449,0,0,1-3.639.731.407.407,0,0,0,.031.813Z" transform="translate(-61.424 -48.901)" fill="#656565"/>
      <path id="Path_7156" data-name="Path 7156" d="M65.355,136.108h.032a18.242,18.242,0,0,0,3.812-.763,5.8,5.8,0,0,1,4.064.19.407.407,0,1,0,.321-.748,6.591,6.591,0,0,0-4.62-.221,17.445,17.445,0,0,1-3.639.731.407.407,0,0,0,.031.813Z" transform="translate(-61.424 -79.046)" fill="#656565"/>
      <path id="Path_7157" data-name="Path 7157" d="M65.355,295.484h.032a18.244,18.244,0,0,0,3.812-.763,5.8,5.8,0,0,1,4.064.19.407.407,0,1,0,.321-.748,6.59,6.59,0,0,0-4.62-.221,17.443,17.443,0,0,1-3.639.731.407.407,0,0,0,.031.813Z" transform="translate(-61.424 -229.773)" fill="#656565"/>
      <path id="Path_7158" data-name="Path 7158" d="M65.355,327.359h.032A18.249,18.249,0,0,0,69.2,326.6a5.8,5.8,0,0,1,4.064.19.407.407,0,1,0,.321-.748,6.59,6.59,0,0,0-4.62-.221,17.452,17.452,0,0,1-3.639.731.407.407,0,0,0,.031.813Z" transform="translate(-61.424 -259.919)" fill="#656565"/>
      <path id="Path_7159" data-name="Path 7159" d="M65.355,167.983h.032a18.247,18.247,0,0,0,3.812-.763,5.8,5.8,0,0,1,4.064.19.407.407,0,0,0,.321-.748,6.591,6.591,0,0,0-4.62-.221,17.445,17.445,0,0,1-3.639.731.407.407,0,0,0,.031.813Z" transform="translate(-61.424 -109.192)" fill="#656565"/>
      <path id="Path_7160" data-name="Path 7160" d="M65.355,231.734h.032a18.246,18.246,0,0,0,3.812-.763,5.8,5.8,0,0,1,4.064.19.407.407,0,0,0,.321-.748,6.591,6.591,0,0,0-4.62-.221,17.441,17.441,0,0,1-3.639.73.407.407,0,0,0,.031.813Z" transform="translate(-61.424 -169.483)" fill="#656565"/>
      <path id="Path_7161" data-name="Path 7161" d="M65.355,199.858h.032a18.248,18.248,0,0,0,3.812-.763,5.8,5.8,0,0,1,4.064.19.407.407,0,0,0,.321-.748,6.59,6.59,0,0,0-4.62-.221,17.449,17.449,0,0,1-3.639.731.407.407,0,0,0,.031.813Z" transform="translate(-61.424 -139.336)" fill="#656565"/>
      <path id="Path_7162" data-name="Path 7162" d="M65.355,263.609h.032a18.244,18.244,0,0,0,3.812-.763,5.8,5.8,0,0,1,4.064.19.407.407,0,0,0,.321-.748,6.59,6.59,0,0,0-4.62-.221,17.439,17.439,0,0,1-3.639.731.407.407,0,0,0,.031.813Z" transform="translate(-61.424 -199.628)" fill="#656565"/>
      <path id="Path_7163" data-name="Path 7163" d="M26.791,52.983h-.637v-.371a.894.894,0,0,0-.964-.891,12.535,12.535,0,0,1-3.976-.471.407.407,0,1,0-.2.789,13.248,13.248,0,0,0,4.241.494.079.079,0,0,1,.085.079V69.036a14.422,14.422,0,0,1-5.095-.725,6.744,6.744,0,0,0-5.946.968V53.01a5.823,5.823,0,0,1,4.85-1.449.407.407,0,1,0,.129-.8,6.584,6.584,0,0,0-5.388,1.523,6.642,6.642,0,0,0-6.352-1.3,13.828,13.828,0,0,1-4.945.741.893.893,0,0,0-.964.891v.371H.994A1,1,0,0,0,0,53.977V70.482a1,1,0,0,0,.994.994H11.54a.4.4,0,0,1,.365.222,2.2,2.2,0,0,0,3.975,0,.4.4,0,0,1,.365-.222H26.791a1,1,0,0,0,.994-.994V62.764a.407.407,0,0,0-.814,0v7.719a.18.18,0,0,1-.18.18H16.245a1.219,1.219,0,0,0-1.1.688,1.386,1.386,0,0,1-2.5,0,1.219,1.219,0,0,0-1.1-.689H.994a.18.18,0,0,1-.18-.18V53.977a.18.18,0,0,1,.18-.18h.637V69.384a.407.407,0,0,0,.3.393c.077.021,1.942.489,5.841-.686a5.84,5.84,0,0,1,5.152.8,1.681,1.681,0,0,0,1.932,0,5.838,5.838,0,0,1,5.152-.8c3.9,1.175,5.763.707,5.841.686a.407.407,0,0,0,.3-.393V53.8h.637a.18.18,0,0,1,.18.18v6.887a.407.407,0,1,0,.814,0V53.977A1,1,0,0,0,26.791,52.983ZM2.445,52.612a.079.079,0,0,1,.085-.079,14.617,14.617,0,0,0,5.245-.773,5.8,5.8,0,0,1,5.711,1.25V69.279a6.714,6.714,0,0,0-5.946-.968c-.22.066-.461.135-.684.194l-.008,0a13.311,13.311,0,0,1-4.4.529c0-1.131,0-16.121,0-16.425Z" fill="#656565"/>
    </g>
  </g>
</svg>
