<svg xmlns="http://www.w3.org/2000/svg" xmlns:xlink="http://www.w3.org/1999/xlink" width="25.52" height="25.5" viewBox="0 0 25.52 25.5">
  <defs>
    <clipPath id="clip-login-01">
      <rect width="25.52" height="25.5"/>
    </clipPath>
  </defs>
  <g id="login-01" clip-path="url(#clip-login-01)">
    <g id="entry">
      <path id="Path_7101" data-name="Path 7101" d="M62.619,52.376H73.849l-2.007-2.007a.369.369,0,1,1,.522-.522L75,52.484a.37.37,0,0,1,.047.057c.005.008.009.017.013.025a.22.22,0,0,1,.031.074.3.3,0,0,1,.01.033.37.37,0,0,1,0,.144c0,.011-.007.021-.01.033a.359.359,0,0,1-.011.036.366.366,0,0,1-.021.038c0,.008-.008.017-.014.025a.37.37,0,0,1-.047.057l-2.636,2.636a.369.369,0,0,1-.522-.522l2.007-2.007H62.619a.369.369,0,0,1,0-.738Z" transform="translate(-62.25 -40.256)" fill="#269c2f"/>
      <path id="Path_7102" data-name="Path 7102" d="M6.27,18.977a.369.369,0,0,1,.369.369v7.778h9.494V7.352H6.639V15.13a.369.369,0,1,1-.738,0V6.984a.369.369,0,0,1,.369-.369h9.863v-1.5a.369.369,0,0,1,.519-.337L25.042,8.51a.369.369,0,0,1,.219.337V25.629a.369.369,0,0,1-.219.337L16.651,29.7a.369.369,0,0,1-.519-.337v-1.5H6.27a.369.369,0,0,1-.369-.369V19.346a.369.369,0,0,1,.369-.369Zm10.6,9.814,7.653-3.4V9.087l-7.653-3.4Z" transform="translate(-0.526 -4.749)" fill="#269c2f"/>
      <path id="Path_7103" data-name="Path 7103" d="M11.695,71.7a.369.369,0,0,1-.369-.369V65.286a.369.369,0,1,1,.738,0v6.042a.369.369,0,0,1-.369.369Z" transform="translate(11.528 -52.235)" fill="#269c2f"/>
    </g>
  </g>
</svg>
