<svg xmlns="http://www.w3.org/2000/svg" xmlns:xlink="http://www.w3.org/1999/xlink" width="27" height="27" viewBox="0 0 27 27">
  <defs>
    <clipPath id="clip-registration">
      <rect width="27" height="27"/>
    </clipPath>
  </defs>
  <g id="registration" clip-path="url(#clip-registration)">
    <g id="verify">
      <path id="Path_7126" data-name="Path 7126" d="M18.187,25.375a7.187,7.187,0,1,1,7.187-7.187A7.2,7.2,0,0,1,18.187,25.375Zm0-13.269a6.082,6.082,0,1,0,6.082,6.082A6.089,6.089,0,0,0,18.187,12.106Z" transform="translate(1.163 1.163)" fill="#656565"/>
      <path id="Path_7127" data-name="Path 7127" d="M16.764,20.529a.559.559,0,0,1-.391-.161l-2.211-2.211a.553.553,0,0,1,.782-.782l1.793,1.793,3.481-3.978a.553.553,0,0,1,.833.728L17.18,20.34a.557.557,0,0,1-.4.189h-.018Z" transform="translate(1.48 1.586)" fill="#656565"/>
      <path id="Path_7128" data-name="Path 7128" d="M10.5,22.9H2.764A2.767,2.767,0,0,1,0,20.139V5.764A2.767,2.767,0,0,1,2.764,3H4.976a.553.553,0,1,1,0,1.106H2.764A1.661,1.661,0,0,0,1.106,5.764V20.139A1.661,1.661,0,0,0,2.764,21.8H10.5a.553.553,0,1,1,0,1.106Z" transform="translate(0 0.317)" fill="#656565"/>
      <path id="Path_7129" data-name="Path 7129" d="M16.976,9.634a.553.553,0,0,1-.553-.553V5.764a1.661,1.661,0,0,0-1.659-1.659H12.553a.553.553,0,1,1,0-1.106h2.211a2.767,2.767,0,0,1,2.764,2.764V9.082A.553.553,0,0,1,16.976,9.634Z" transform="translate(1.269 0.317)" fill="#656565"/>
      <path id="Path_7130" data-name="Path 7130" d="M12.293,6.634H5.659A1.661,1.661,0,0,1,4,4.976V2.764a.553.553,0,0,1,.553-.553H6.267a2.765,2.765,0,0,1,5.418,0H13.4a.553.553,0,0,1,.553.553V4.976A1.661,1.661,0,0,1,12.293,6.634ZM5.106,3.317V4.976a.554.554,0,0,0,.553.553h6.634a.554.554,0,0,0,.553-.553V3.317H11.187a.553.553,0,0,1-.553-.553,1.659,1.659,0,0,0-3.317,0,.553.553,0,0,1-.553.553Z" transform="translate(0.423)" fill="#656565"/>
      <path id="Path_7131" data-name="Path 7131" d="M14.61,9.106H3.553A.553.553,0,1,1,3.553,8H14.61a.553.553,0,0,1,0,1.106Z" transform="translate(0.317 0.846)" fill="#656565"/>
      <path id="Path_7132" data-name="Path 7132" d="M11.293,12.106H3.553a.553.553,0,1,1,0-1.106h7.74a.553.553,0,1,1,0,1.106Z" transform="translate(0.317 1.163)" fill="#656565"/>
      <path id="Path_7133" data-name="Path 7133" d="M9.082,15.106H3.553a.553.553,0,1,1,0-1.106H9.082a.553.553,0,0,1,0,1.106Z" transform="translate(0.317 1.48)" fill="#656565"/>
    </g>
  </g>
</svg>
