<svg xmlns="http://www.w3.org/2000/svg" xmlns:xlink="http://www.w3.org/1999/xlink" width="364" height="211" viewBox="0 0 364 211">
  <defs>
    <clipPath id="clip-path">
      <rect id="Rectangle_453" data-name="Rectangle 453" width="364" height="211" transform="translate(953.628 592.819)" fill="#fff" stroke="#707070" stroke-width="1"/>
    </clipPath>
    <clipPath id="clip-path-2">
      <rect id="Rectangle_438" data-name="Rectangle 438" width="157.608" height="162.676" fill="#cacff7"/>
    </clipPath>
  </defs>
  <g id="Mask_Group_3" data-name="Mask Group 3" transform="translate(-953.628 -592.819)" clip-path="url(#clip-path)">
    <g id="Group_460" data-name="Group 460" transform="translate(940.394 584.027)">
      <path id="Path_5069" data-name="Path 5069" d="M225.388,122.2H629.868a32.163,32.163,0,0,1,32.094,32.093V362.836a32.163,32.163,0,0,1-32.094,32.093H225.388a32.163,32.163,0,0,1-32.094-32.093V154.294A32.163,32.163,0,0,1,225.388,122.2Z" transform="translate(-193.294 -122.201)" fill="rgba(0,172,21,0.03)" fill-rule="evenodd"/>
      <path id="Path_5070" data-name="Path 5070" d="M666.379,1195.914a32.323,32.323,0,0,1-30.144,21.049H231.753a32.323,32.323,0,0,1-30.144-21.049Z" transform="translate(-199.66 -944.234)" fill="#64a76d" fill-rule="evenodd"/>
      <path id="Path_5071" data-name="Path 5071" d="M225.388,122.2H629.868a32.163,32.163,0,0,1,32.094,32.093v12.733H193.294V154.294A32.163,32.163,0,0,1,225.388,122.2Z" transform="translate(-193.294 -122.201)" fill="#64a76d" fill-rule="evenodd"/>
      <path id="Path_5072" data-name="Path 5072" d="M193.294,237.794v-1.169a43.5,43.5,0,0,1,.536-6.886H342.283v8.056Z" transform="translate(-193.294 -204.531)" fill="#fff" fill-rule="evenodd"/>
      <path id="Path_5073" data-name="Path 5073" d="M250,122.2H654.483a31.959,31.959,0,0,1,24.557,11.564h-453.6A31.96,31.96,0,0,1,250,122.2Z" transform="translate(-217.909 -122.201)" fill="#64a76d" fill-rule="evenodd"/>
      <g id="Group_457" data-name="Group 457" transform="translate(25.727 61.718)">
        <path id="Path_5084" data-name="Path 5084" d="M0,0H157.608V162.676H0Z" transform="translate(0)" fill="#eafaea"/>
        <g id="Group_456" data-name="Group 456" transform="translate(0)" clip-path="url(#clip-path-2)">
          <path id="Path_5074" data-name="Path 5074" d="M542.341,618.5c2.469-.649,5.2,1.559,6.107,5.068.909,3.378-.39,6.627-2.859,7.276-2.6.78-5.327-1.559-6.237-4.937-.909-3.508.39-6.756,2.989-7.406Z" transform="translate(-483.741 -563.798)" fill="#fea67e" fill-rule="evenodd"/>
          <path id="Path_5075" data-name="Path 5075" d="M702.881,618.5c-2.469-.649-5.2,1.559-6.107,5.068-.91,3.378.39,6.627,2.858,7.276,2.469.78,5.2-1.559,6.107-4.937.909-3.508-.39-6.756-2.859-7.406Z" transform="translate(-604.262 -563.798)" fill="#fea67e" fill-rule="evenodd"/>
          <path id="Path_5076" data-name="Path 5076" d="M550.5,697.028s-.65,16.242-2.339,21.7c-1.559,5.457-6.756,8.316-6.756,8.316,6.237,11.824,20.789,11.694,32.483,10.394,8.965-1.039,13.9-10.394,13.9-10.394s-5.2-2.859-6.756-8.316-2.339-21.7-2.339-21.7Z" transform="translate(-485.535 -624.006)" fill="#fea67e" fill-rule="evenodd"/>
          <path id="Path_5077" data-name="Path 5077" d="M579.36,697.028s0,1.819-.26,4.548c1.949,7.406,7.666,12.733,14.422,12.733,6.627,0,12.344-5.327,14.293-12.733-.13-2.729-.26-4.548-.26-4.548Z" transform="translate(-514.393 -624.006)" fill="#f7976b" fill-rule="evenodd"/>
          <path id="Path_5078" data-name="Path 5078" d="M553.047,526.005s2.339,22.738,3.378,27.546,4.028,7.926,7.8,10.525a15.409,15.409,0,0,0,18.061,0c3.768-2.6,6.757-5.717,7.8-10.525s3.508-27.546,3.508-27.546l-20.01-16.891Z" transform="translate(-494.447 -480.139)" fill="#fea67e" fill-rule="evenodd"/>
          <path id="Path_5079" data-name="Path 5079" d="M517.095,486.908c-2.728-.91-5.457-8.056-5.977-12.474-.39-4.288-1.559-4.807-3.118-7.146s.52-8.186,1.949-10.785c1.429-2.469,4.288-2.988,8.705-3.378,4.548-.39,7.016-1.429,7.926-2.859,1.04-1.3,3.508-3.118,7.8-3.248,4.288-.26,8.056-1.04,12.474,5.327,4.548,6.367,5.587,6.107,9.875,6.887,4.158.78,5.457,1.559,5.847,5.327a15.551,15.551,0,0,0,2.6,7.016c1.3,2.209,1.3,3.508.78,5.977a14.674,14.674,0,0,0,0,5.327c.26,2.339-.26,3.248-2.469,4.418-2.079,1.3-3.768,1.949-5.977,1.559-2.339-.26-2.729-3.119-3.508-6.627-.91-3.378-2.079-4.158-4.028-4.937s-2.469-2.339-3.638-4.808c-1.3-2.339-5.717-2.339-8.056-1.3-2.339.909-3.768,3.508-5.2,6.237s-3.248,2.989-6.107,3.378c-2.728.52-4.028.39-5.587,2.339-1.689,2.079-1.559,4.807-4.288,3.768Z" transform="translate(-459.535 -432.466)" fill="#4b2c29" fill-rule="evenodd"/>
          <path id="Path_5080" data-name="Path 5080" d="M287.182,801.794s-8.965,2.339-13.773,2.339c-4.677-.13-15.332-1.689-24.037,5.847-17.281,14.682-35.862,48.595-42.228,70.034a56.977,56.977,0,0,0-2.209,12.084H408.8a66.6,66.6,0,0,0-2.209-12.084c-6.367-21.439-24.947-55.351-42.228-70.034-8.705-7.536-19.49-5.977-24.168-5.847-4.678,0-13.773-2.339-13.773-2.339s-2.6,6.5-8.965,9.355c-8.186,3.768-12.994,3.768-21.179,0-6.367-2.858-9.1-9.355-9.1-9.355Z" transform="translate(-227.933 -704.215)" fill="#ffde81" fill-rule="evenodd"/>
          <path id="Path_5081" data-name="Path 5081" d="M907.139,1058.443a147.346,147.346,0,0,1,6.886,18.061,56.968,56.968,0,0,1,2.209,12.084H871.927c-2.339-5.847-4.028-10.525-4.028-10.525Z" transform="translate(-735.497 -900.704)" fill="#fea67e" fill-rule="evenodd"/>
          <path id="Path_5082" data-name="Path 5082" d="M214.03,1058.443a147.329,147.329,0,0,0-6.886,18.061,56.979,56.979,0,0,0-2.209,12.084h44.307c2.339-5.847,4.028-10.525,4.028-10.525Z" transform="translate(-227.933 -900.704)" fill="#fea67e" fill-rule="evenodd"/>
          <path id="Path_5083" data-name="Path 5083" d="M542.065,793.48c.65,4.028,4.158,7.276,8.316,9.485,7.146,3.638,13.383,3.378,20.27-.649,3.638-2.209,6.5-5.2,7.146-8.835l6.627,3.118c-9.1,20.529-40.019,20.529-49.115,0,2.209-1.039,4.418-2.079,6.756-3.118Z" transform="translate(-480.867 -697.849)" fill="#e57545" fill-rule="evenodd"/>
        </g>
      </g>
      <rect id="Rectangle_439" data-name="Rectangle 439" width="102.517" height="11.954" transform="translate(210.881 74.841)" fill="rgba(100,167,109,0.48)"/>
      <rect id="Rectangle_440" data-name="Rectangle 440" width="49.374" height="11.954" transform="translate(392.137 74.841)" fill="rgba(100,167,109,0.48)"/>
      <rect id="Rectangle_441" data-name="Rectangle 441" width="126.035" height="11.954" transform="translate(210.881 98.229)" fill="rgba(100,167,109,0.48)"/>
      <rect id="Rectangle_442" data-name="Rectangle 442" width="106.285" height="11.954" transform="translate(210.881 170.991)" fill="rgba(100,167,109,0.48)"/>
      <rect id="Rectangle_443" data-name="Rectangle 443" width="43.527" height="11.954" transform="translate(210.881 212.57)" fill="rgba(100,167,109,0.48)"/>
      <rect id="Rectangle_444" data-name="Rectangle 444" width="43.527" height="11.954" transform="translate(270.65 212.57)" fill="rgba(100,167,109,0.48)"/>
      <rect id="Rectangle_445" data-name="Rectangle 445" width="43.527" height="11.954" transform="translate(334.317 212.57)" fill="rgba(100,167,109,0.48)"/>
      <rect id="Rectangle_446" data-name="Rectangle 446" width="43.527" height="11.954" transform="translate(395.386 212.57)" fill="rgba(100,167,109,0.48)"/>
      <rect id="Rectangle_447" data-name="Rectangle 447" width="58.989" height="11.954" transform="translate(383.042 170.991)" fill="rgba(100,167,109,0.48)"/>
      <rect id="Rectangle_448" data-name="Rectangle 448" width="67.825" height="11.954" transform="translate(210.881 122.916)" fill="rgba(100,167,109,0.48)"/>
      <rect id="Rectangle_449" data-name="Rectangle 449" width="67.825" height="11.954" transform="translate(210.881 147.604)" fill="rgba(100,167,109,0.48)"/>
      <rect id="Rectangle_450" data-name="Rectangle 450" width="67.825" height="11.954" transform="translate(292.739 122.916)" fill="rgba(100,167,109,0.48)"/>
      <rect id="Rectangle_451" data-name="Rectangle 451" width="67.825" height="11.954" transform="translate(292.739 147.604)" fill="rgba(100,167,109,0.48)"/>
      <rect id="Rectangle_452" data-name="Rectangle 452" width="62.368" height="11.954" transform="translate(380.184 98.229)" fill="rgba(100,167,109,0.48)"/>
      <text id="IdentiFication_Card" data-name="IdentiFication Card" transform="translate(168.42 33.712)" fill="#fff" font-size="25" font-family="Poppins-Medium, Poppins" font-weight="500"><tspan x="0" y="0">IDENTIFICATION CARD</tspan></text>
    </g>
  </g>
</svg>
