<svg id="Group_4070" data-name="Group 4070" xmlns="http://www.w3.org/2000/svg" xmlns:xlink="http://www.w3.org/1999/xlink" width="14.581" height="14.573" viewBox="0 0 14.581 14.573">
  <defs>
    <clipPath id="clip-path">
      <rect id="Rectangle_1789" data-name="Rectangle 1789" width="14.581" height="14.573" fill="#707070" stroke="#fff" stroke-width="0.1"/>
    </clipPath>
  </defs>
  <g id="Group_4069" data-name="Group 4069" clip-path="url(#clip-path)">
    <path id="Path_4605" data-name="Path 4605" d="M0,7.883V6.658a1.506,1.506,0,0,0,.063-.381,7.076,7.076,0,0,1,1.69-3.731A7.163,7.163,0,0,1,8.065.035,6.859,6.859,0,0,1,10.986,1a7.272,7.272,0,0,1,3.465,7.646,7.129,7.129,0,0,1-2.7,4.4,7.107,7.107,0,0,1-3.359,1.446,2.851,2.851,0,0,0-.535.08h-1.2a1.5,1.5,0,0,0-.394-.065,7.32,7.32,0,0,1-6.185-6.1A2.733,2.733,0,0,0,0,7.883M11.483,7.3A4.194,4.194,0,1,0,7.27,11.479,4.191,4.191,0,0,0,11.483,7.3M7.717,1.562c0,.18,0,.36,0,.54,0,.1,0,.159.13.152a1.243,1.243,0,0,1,.266.036,4.983,4.983,0,0,1,2.36,1.065c.057.047.089.052.145-.006q.406-.418.824-.824c.064-.062.064-.09-.006-.149A6.451,6.451,0,0,0,7.857.879c-.1-.01-.151.007-.143.129.012.184,0,.369,0,.554M1.578,7.713c-.2,0-.408,0-.612,0-.07,0-.094.019-.084.088.02.145.033.292.054.437a6.356,6.356,0,0,0,1.45,3.2c.057.068.084.058.139,0,.272-.278.546-.555.826-.824.069-.066.046-.1,0-.157A4.99,4.99,0,0,1,2.253,7.8c-.007-.068-.026-.086-.092-.085-.194,0-.389,0-.584,0m2.447-4.3c.021-.015.037-.026.051-.038A5.012,5.012,0,0,1,6.781,2.25c.075-.008.08-.038.079-.1,0-.393,0-.787,0-1.18,0-.087-.03-.1-.106-.095a7.647,7.647,0,0,0-.771.114A6.424,6.424,0,0,0,3.148,2.371c-.073.061-.077.091-.008.158.3.292.59.589.884.885M1.554,6.856c.2,0,.4,0,.6,0,.067,0,.1-.009.1-.09a2.263,2.263,0,0,1,.041-.309A4.989,4.989,0,0,1,3.363,4.1c.043-.053.046-.084-.006-.135-.278-.272-.554-.546-.825-.826-.07-.072-.1-.06-.159.01a6.493,6.493,0,0,0-1,1.626A6.637,6.637,0,0,0,.883,6.7c-.013.12.01.168.144.157.174-.014.351,0,.526,0m2.473,4.3c-.3.3-.6.6-.9.9-.06.059-.054.086.008.138a6.462,6.462,0,0,0,3.575,1.5c.115.012.154-.011.15-.136-.01-.365-.006-.73,0-1.095,0-.094-.009-.134-.123-.145a4.593,4.593,0,0,1-.9-.181,5.1,5.1,0,0,1-1.811-.979m6.525,0c-.028.021-.051.037-.073.055A5.009,5.009,0,0,1,7.8,12.32c-.074.008-.081.036-.08.1,0,.393,0,.787,0,1.18,0,.085.027.1.105.1.259-.028.516-.061.771-.114a6.4,6.4,0,0,0,2.858-1.4c.052-.044.059-.068.007-.119-.3-.3-.6-.6-.9-.906m.607-7.136c.015.021.026.037.038.052a5.02,5.02,0,0,1,1.127,2.71c.007.065.031.075.087.075.4,0,.8,0,1.2,0,.081,0,.1-.029.088-.1-.028-.2-.049-.4-.084-.6a6.329,6.329,0,0,0-1.426-3.03c-.042-.05-.066-.063-.119-.01-.3.3-.6.6-.907.9m1.857,3.694c-.166,0-.333.008-.5,0-.132-.009-.217.005-.2.169a.864.864,0,0,1-.028.211,5.024,5.024,0,0,1-1.07,2.377c-.048.059-.049.09.008.145q.418.407.825.826c.066.068.093.056.149-.011a6.5,6.5,0,0,0,1.067-1.782,6.6,6.6,0,0,0,.428-1.8c.008-.083.012-.143-.108-.135-.189.011-.379,0-.569,0" transform="translate(0 0)" fill="#707070" stroke="#fff" stroke-width="0.1"/>
    <path id="Path_4606" data-name="Path 4606" d="M145.21,113.547a3.063,3.063,0,0,1-.779-.055,1.338,1.338,0,0,1-.935-1.449,1.323,1.323,0,0,1,1.272-1.142c.106,0,.125-.037.119-.13-.008-.109,0-.218,0-.327a.427.427,0,0,1,.855,0,3.262,3.262,0,0,1,0,.327c-.007.094.015.124.118.132a1.509,1.509,0,0,1,1.182.664.441.441,0,0,1-.078.63.427.427,0,0,1-.62-.123.693.693,0,0,0-.589-.312c-.3,0-.607-.012-.91-.01a.468.468,0,1,0,0,.934c.337,0,.674,0,1.01,0a1.322,1.322,0,0,1,.221,2.618c-.047.009-.093.019-.14.025-.194.023-.194.022-.194.225,0,.085,0,.171,0,.256a.427.427,0,0,1-.853,0,2.914,2.914,0,0,1,0-.341c.008-.1-.018-.134-.129-.135a1.507,1.507,0,0,1-1.122-.5.434.434,0,1,1,.626-.594.7.7,0,0,0,.518.227c.332,0,.664.011,1,.011a.469.469,0,1,0,0-.935c-.175,0-.351,0-.566,0" transform="translate(-138.025 -105.834)" fill="#707070" stroke="#fff" stroke-width="0.1"/>
  </g>
</svg>
